<svg width="103" height="66" viewBox="0 0 103 66" fill="none" xmlns="http://www.w3.org/2000/svg">
<path fill-rule="evenodd" clip-rule="evenodd" d="M31.4079 53.2094L31.2136 53.3876C29.9542 54.7849 28.4232 55.9144 26.7128 56.7081C25.0025 57.5018 23.1481 57.9432 21.2615 58.0058C13.8647 58.0058 8.48521 52.4818 8.48521 44.8639C8.48521 37.2461 13.8647 31.7369 21.2615 31.7369C23.1481 31.7995 25.0025 32.2409 26.7128 33.0346C28.4232 33.8283 29.9542 34.9578 31.2136 36.3551L31.4079 36.5482L36.1598 30.8163L36.0402 30.6677C34.3128 28.4811 32.1006 26.7203 29.5761 25.5226C27.0516 24.3249 24.2829 23.7226 21.4857 23.7627C15.9473 23.6523 10.5682 25.6072 6.40812 29.2422C2.29999 33.4203 0 39.0299 0 44.8714C0 50.7128 2.29999 56.3224 6.40812 60.5005C10.5591 64.1523 15.9431 66.1143 21.4857 65.9949C24.2845 66.0355 27.0547 65.4319 29.5797 64.2314C32.1047 63.0309 34.3159 61.2661 36.0402 59.075L36.1598 58.9414L31.4079 53.2094Z" fill="#0076C0"/>
<path fill-rule="evenodd" clip-rule="evenodd" d="M40.9717 65.2081H49.3846V24.4163H40.9717V65.2081Z" fill="#0076C0"/>
<path fill-rule="evenodd" clip-rule="evenodd" d="M82.334 56.3429C80.486 57.5711 78.3379 58.2792 76.1177 58.3921C73.398 58.3921 72.1727 56.9072 72.1727 53.7888V32.1381H80.7351V24.5351H72.1727V11.7644L63.9241 16.2193V24.5351H56.8262V32.2123H63.9241V55.244C63.9241 61.5105 67.6748 65.802 73.2486 65.906C75.871 66.0358 78.4727 65.3843 80.7201 64.035H80.7948L82.8271 56.1647L82.334 56.4617V56.3429Z" fill="#0076C0"/>
<path fill-rule="evenodd" clip-rule="evenodd" d="M89.2825 65.2081H97.7104V24.4163H89.2825V65.2081Z" fill="#0076C0"/>
<path fill-rule="evenodd" clip-rule="evenodd" d="M102.611 17.2589C98.8453 11.9279 93.8429 7.57644 88.0271 4.57238C82.2114 1.56832 75.7532 0 69.1987 0C62.6442 0 56.1861 1.56832 50.3703 4.57238C44.5545 7.57644 39.5521 11.9279 35.786 17.2589L35.3826 17.8232H45.0657L45.1703 17.7043C48.2539 14.4469 51.9759 11.8511 56.1069 10.0768C60.238 8.30241 64.6908 7.38708 69.1912 7.38708C73.6917 7.38708 78.1445 8.30241 82.2756 10.0768C86.4066 11.8511 90.1286 14.4469 93.2122 17.7043L93.3317 17.8232H103L102.611 17.2589Z" fill="#E40520"/>
</svg>
